Coordinates
version=1
nRows=15
nColumns=19
inDegrees=yes

Units are S.I. units (second, meters, Newtons, ...)
If the header above contains a line with 'inDegrees', this indicates whether rotational values are in degrees (yes) or radians (no).

endheader
time	pelvis_obliquity	pelvis_rotation	pelvis_tilt	pelvis_to_ground_tx	pelvis_to_ground_ty	pelvis_to_ground_tz	left_hip_abduction	left_hip_rotation	left_hip_flexion	left_knee_flexion	left_ankle_flexion	left_subtalar_angle	right_hip_abduction	right_hip_rotation	right_hip_flexion	right_knee_flexion	right_ankle_flexion	right_subtalar_angle
      2.13000000	     86.09844540	     18.66346620	    -11.30076639	     -1.63483187	     -0.68883580	      0.60632551	      0.01661158	     -9.05519169	     32.84096140	    -42.64747042	    -16.67928481	    -14.34076416	      1.33323437	     15.34031563	     20.67820138	     -3.42263004	     -7.48228098	    -13.56482996
      2.14000000	     85.92004521	     17.79892446	    -11.22134265	     -1.62760198	     -0.68826266	      0.60649435	     -0.00890414	     -8.48024472	     35.20332436	    -43.47711389	    -16.30977294	    -14.47121777	      1.77154015	     15.65464478	     19.66024839	     -2.73586584	     -7.48829120	    -13.34388155
      2.15000000	     85.65680524	     17.02436359	    -11.04805769	     -1.62034485	     -0.68771678	      0.60650869	      0.12437244	     -8.08304817	     37.41439208	    -44.12498843	    -16.13406039	    -14.55177144	      2.35832086	     15.67889956	     18.58664609	     -2.13605475	     -7.49024000	    -13.22005480
      2.16000000	     85.39937317	     16.10789630	    -10.77005125	     -1.61300275	     -0.68706308	      0.60645597	      0.26743466	     -7.56263458	     39.33709487	    -44.45395657	    -15.60889296	    -14.69295625	      2.88254277	     16.21802439	     17.28849544	     -1.35325351	     -7.59966341	    -12.88839010
      2.17000000	     85.09395644	     15.30842773	    -10.46363586	     -1.60558945	     -0.68642844	      0.60626881	      0.59073001	     -7.29732434	     41.10608587	    -44.51514554	    -15.15514940	    -14.77155665	      3.51031930	     16.47753036	     15.98433434	     -0.65499699	     -7.76617977	    -12.69162024
      2.18000000	     84.77729427	     14.45125278	    -10.13560647	     -1.59809586	     -0.68573687	      0.60597867	      0.99933968	     -6.99597287	     42.67678113	    -44.25917723	    -15.01240120	    -14.82972765	      4.13589493	     16.75245801	     14.69281334	     -0.07227341	     -7.80207084	    -12.52636232
      2.19000000	     84.45794144	     13.62931443	     -9.79031377	     -1.59046063	     -0.68500332	      0.60560339	      1.54092432	     -6.86271306	     44.00720676	    -43.64955593	    -14.90349880	    -14.89619358	      4.77184705	     17.07360158	     13.33841436	      0.53352922	     -7.86439511	    -12.36211781
      2.20000000	     84.13152273	     12.80417400	     -9.44863740	     -1.58267879	     -0.68421866	      0.60513777	      2.20663184	     -6.81837712	     45.10485294	    -42.69415551	    -14.89144746	    -14.95804921	      5.40791875	     17.40466059	     11.99581598	      1.06502660	     -7.91852054	    -12.22077016
      2.21000000	     83.80186135	     11.97934235	     -9.10594978	     -1.57471665	     -0.68338390	      0.60458544	      2.99234708	     -6.87171691	     45.93834776	    -41.39892693	    -14.97702873	    -15.02263456	      6.04218590	     17.75976407	     10.64884893	      1.53995202	     -7.97808116	    -12.09742619
      2.22000000	     83.46202219	     11.14891593	     -8.76077855	     -1.56653850	     -0.68249777	      0.60394348	      3.89558158	     -7.01855341	     46.48531270	    -39.79294594	    -15.17191686	    -15.09433376	      6.68097274	     18.13819557	      9.31129957	      1.92564979	     -8.03679119	    -11.98924106
      2.23000000	     83.10131585	     10.31813993	     -8.41924733	     -1.55812407	     -0.68156119	      0.60319834	      4.90886424	     -7.24479675	     46.75335483	    -37.93254478	    -15.49772288	    -15.19922873	      7.33050144	     18.51598544	      7.99275194	      2.22482743	     -8.11328657	    -11.90372623
      2.24000000	     82.72871995	      9.48876263	     -8.08946295	     -1.54944935	     -0.68057269	      0.60235466	      6.00791087	     -7.56785457	     46.73807071	    -35.86807778	    -15.90139731	    -15.32013431	      7.97696862	     18.87787554	      6.71684903	      2.40602133	     -8.16875171	    -11.81192452
      2.25000000	     82.33373455	      8.66906213	     -7.75775775	     -1.54049751	     -0.67954416	      0.60139825	      7.17451277	     -7.98523159	     46.44063128	    -33.68522227	    -16.42339460	    -15.50271213	      8.63719907	     19.23435665	      5.46786175	      2.47831771	     -8.23997281	    -11.71924205
      2.26000000	     81.93152495	      7.86473564	     -7.44315667	     -1.53124834	     -0.67848162	      0.60033337	      8.35581104	     -8.47362176	     45.89442434	    -31.46254157	    -16.98659359	    -15.73139028	      9.28577186	     19.54931840	      4.28796538	      2.40113530	     -8.31556360	    -11.61852482
      2.27000000	     81.52972081	      7.09112883	     -7.14854409	     -1.52170174	     -0.67739404	      0.59916151	      9.50880720	     -9.02905558	     45.13052353	    -29.28903737	    -17.61853013	    -16.05158069	      9.91559642	     19.82050480	      3.18913350	      2.16616944	     -8.42154580	    -11.50454634
